<?xml version="1.0" standalone="no"?>
<!DOCTYPE svg PUBLIC "-//W3C//DTD SVG 20010904//EN"
 "http://www.w3.org/TR/2001/REC-SVG-20010904/DTD/svg10.dtd">
<svg version="1.0" xmlns="http://www.w3.org/2000/svg"
 width="260.000000pt" height="260.000000pt" viewBox="0 0 260.000000 260.000000"
 preserveAspectRatio="xMidYMid meet">
<metadata>
Created by potrace 1.11, written by Peter Selinger 2001-2013
</metadata>
<g transform="translate(0.000000,260.000000) scale(0.100000,-0.100000)"
fill="#000000" stroke="none">
<path d="M1352 2410 c-170 -61 -263 -217 -261 -440 0 -62 2 -71 11 -50 92 219
187 314 350 350 115 26 365 -1 513 -56 20 -7 20 -7 1 14 -50 58 -299 158 -460
187 -106 18 -89 18 -154 -5z"/>
<path d="M614 2227 c-78 -57 -201 -189 -262 -281 -54 -80 -103 -191 -129 -288
-25 -94 -22 -253 5 -351 39 -137 136 -301 215 -361 73 -56 216 -88 297 -66 45
12 120 75 120 101 0 8 -9 -1 -20 -19 -43 -71 -140 -98 -217 -61 -25 12 -48 30
-50 40 -3 10 -11 20 -17 22 -35 14 -131 201 -140 276 -14 112 -16 140 -8 166
7 26 4 34 -26 65 -38 38 -92 118 -92 134 0 6 13 -11 29 -39 52 -89 156 -169
280 -216 31 -11 65 -28 76 -37 11 -9 -21 24 -70 73 -103 102 -149 178 -164
272 -24 153 51 359 198 541 28 34 51 64 51 67 0 13 -23 2 -76 -38z"/>
<path d="M1883 1667 c-63 -15 -78 -27 -32 -27 49 0 175 -37 232 -67 99 -54
171 -159 208 -301 23 -91 34 -272 21 -359 -5 -35 -5 -63 -2 -63 14 0 51 101
72 193 17 72 22 127 22 253 l1 161 -40 58 c-43 63 -94 106 -165 138 -55 24
-236 33 -317 14z"/>
<path d="M2035 1268 c28 -26 63 -69 78 -96 l27 -50 -22 -39 c-27 -46 -109
-152 -137 -175 -42 -36 -124 -88 -137 -88 -11 0 -10 -6 2 -35 7 -19 14 -38 14
-42 -1 -9 -77 133 -86 160 -4 9 -11 17 -16 17 -5 0 -7 -3 -4 -8 2 -4 9 -42 15
-84 14 -101 0 -215 -35 -287 -68 -138 -252 -255 -497 -315 -48 -12 -85 -25
-81 -29 13 -13 196 -7 294 8 455 74 733 381 718 793 -2 78 -8 107 -28 147 -25
52 -99 139 -135 157 -11 6 3 -9 30 -34z m-158 -590 c-3 -8 -6 -5 -6 6 -1 11 2
17 5 13 3 -3 4 -12 1 -19z m10 -50 c-3 -8 -6 -5 -6 6 -1 11 2 17 5 13 3 -3 4
-12 1 -19z"/>
<path d="M180 1027 c0 -24 36 -119 70 -187 172 -342 433 -530 737 -530 179 0
345 51 425 131 86 86 129 206 105 289 -13 44 -14 45 -52 44 -22 -1 -62 -5 -90
-10 -53 -9 -110 -10 -188 -3 l-49 4 39 34 c48 42 92 61 140 61 43 0 117 -31
152 -63 16 -15 22 -17 19 -7 -2 8 -32 30 -67 48 -106 53 -157 44 -283 -55
-157 -123 -260 -166 -394 -167 -87 -1 -93 0 -180 43 -75 37 -104 60 -189 145
-55 56 -120 131 -144 169 -45 70 -51 76 -51 54z m872 -344 c-16 -21 -40 -47
-53 -58 -13 -11 -1 6 26 38 55 64 73 77 27 20z m-92 -96 c0 -2 -10 -12 -22
-23 l-23 -19 19 23 c18 21 26 27 26 19z"/>
<path d="M1732 1005 c0 -5 6 -26 13 -45 7 -19 14 -28 14 -20 0 8 -6 29 -14 45
-7 17 -13 26 -13 20z"/>
</g>
</svg>
